<svg xmlns="http://www.w3.org/2000/svg" width="337" height="112" fill="none"><rect width="336" height="111" x=".5" y=".5" stroke="#C8DDF2" rx="19.5"/><path fill="#000" d="M30.068 57v-3.045l8.08-7.92a37.997 37.997 0 0 0 1.931-2.08c.516-.606.902-1.194 1.16-1.762a4.352 4.352 0 0 0 .386-1.818c0-.735-.167-1.364-.5-1.886a3.324 3.324 0 0 0-1.375-1.228c-.583-.288-1.246-.431-1.989-.431-.765 0-1.435.159-2.011.477a3.284 3.284 0 0 0-1.34 1.33c-.311.575-.467 1.26-.467 2.056h-4.011c0-1.477.337-2.761 1.011-3.852.674-1.091 1.602-1.936 2.784-2.534 1.19-.599 2.553-.898 4.091-.898 1.56 0 2.932.292 4.114.875s2.098 1.383 2.75 2.398c.659 1.015.988 2.174.988 3.477 0 .871-.166 1.727-.5 2.568-.333.841-.92 1.773-1.76 2.796-.834 1.022-2.005 2.261-3.512 3.716l-4.012 4.08v.158h10.137V57H30.068Zm28.477.443c-1.87 0-3.477-.473-4.818-1.42-1.333-.955-2.36-2.33-3.08-4.125-.711-1.803-1.067-3.974-1.067-6.512.007-2.538.367-4.697 1.08-6.477.719-1.788 1.745-3.151 3.079-4.09 1.34-.94 2.943-1.41 4.806-1.41 1.864 0 3.466.47 4.807 1.41 1.341.939 2.368 2.302 3.08 4.09.72 1.788 1.08 3.947 1.08 6.477 0 2.546-.36 4.72-1.08 6.523-.712 1.796-1.739 3.167-3.08 4.114-1.333.947-2.935 1.42-4.806 1.42Zm0-3.557c1.455 0 2.603-.716 3.444-2.147.848-1.44 1.272-3.557 1.272-6.353 0-1.848-.193-3.401-.58-4.659-.386-1.257-.931-2.204-1.636-2.84a3.582 3.582 0 0 0-2.5-.967c-1.447 0-2.59.72-3.431 2.16-.841 1.431-1.265 3.534-1.273 6.306-.008 1.856.178 3.417.557 4.682.386 1.265.931 2.22 1.636 2.864.705.636 1.542.954 2.511.954Zm19.651-.613V37.545h3.568v15.728h-3.568Zm-6.08-6.08v-3.568h15.728v3.568H72.117Z"/><path fill="#5F5F5F" d="M29.41 85V73.364h3.93c.914 0 1.66.164 2.24.494.583.326 1.015.767 1.295 1.324s.42 1.178.42 1.864c0 .685-.14 1.308-.42 1.869-.276.56-.705 1.007-1.284 1.34-.58.33-1.322.495-2.227.495h-2.818V79.5h2.772c.625 0 1.127-.108 1.506-.324a1.93 1.93 0 0 0 .824-.875 2.92 2.92 0 0 0 .261-1.255c0-.467-.087-.883-.261-1.25a1.864 1.864 0 0 0-.83-.864c-.382-.212-.89-.318-1.523-.318h-2.477V85H29.41Zm12.542.204a3.546 3.546 0 0 1-1.506-.312 2.584 2.584 0 0 1-1.074-.915c-.265-.401-.398-.886-.398-1.454 0-.5.099-.906.296-1.216.197-.315.46-.56.79-.739a4.15 4.15 0 0 1 1.09-.397c.402-.092.806-.163 1.21-.217.531-.068.961-.119 1.29-.153.334-.038.576-.1.728-.187.155-.088.233-.239.233-.455v-.045c0-.561-.154-.997-.46-1.307-.304-.31-.764-.466-1.381-.466-.64 0-1.142.14-1.506.42-.363.28-.62.58-.767.898l-1.273-.455c.228-.53.53-.943.91-1.238.382-.3.799-.508 1.25-.625a5.19 5.19 0 0 1 1.34-.182c.28 0 .603.034.966.102a3.09 3.09 0 0 1 1.063.404c.344.204.63.513.858.926.227.413.34.966.34 1.659V85h-1.34v-1.182h-.068a2.36 2.36 0 0 1-.455.608c-.212.216-.494.4-.846.551-.353.152-.783.227-1.29.227ZM42.156 84c.53 0 .977-.104 1.341-.313a2.127 2.127 0 0 0 1.114-1.846v-1.227c-.057.068-.182.13-.375.187-.19.053-.41.1-.66.142a29.81 29.81 0 0 1-1.283.17c-.349.046-.675.12-.978.222a1.682 1.682 0 0 0-.727.45c-.182.196-.273.465-.273.806 0 .466.173.818.517 1.057.349.235.79.352 1.324.352Zm6.243 1v-8.727h1.296v1.318h.09c.16-.432.448-.782.864-1.051a2.542 2.542 0 0 1 1.41-.404c.098 0 .22.002.369.006.147.004.259.01.335.017v1.364a4.008 4.008 0 0 0-.313-.051 3.077 3.077 0 0 0-.505-.04c-.425 0-.803.089-1.137.267a1.954 1.954 0 0 0-1.068 1.778V85H48.4Zm10.296-8.727v1.136h-4.523v-1.136h4.523Zm-3.205-2.091h1.341V82.5c0 .379.055.663.165.852a.85.85 0 0 0 .432.375c.178.06.365.091.562.091.148 0 .269-.007.364-.022l.227-.046.273 1.204a2.587 2.587 0 0 1-.381.103c-.163.038-.37.057-.62.057-.378 0-.75-.082-1.113-.245a2.213 2.213 0 0 1-.898-.744c-.234-.333-.352-.754-.352-1.261v-8.682Zm6.563 5.568V85h-1.341v-8.727h1.295v1.363h.114c.204-.443.515-.799.932-1.068.416-.272.954-.409 1.613-.409.591 0 1.108.121 1.551.364.444.238.788.602 1.034 1.09.247.486.37 1.1.37 1.841V85H66.28v-5.454c0-.686-.178-1.22-.534-1.603-.356-.386-.845-.58-1.466-.58-.428 0-.81.093-1.148.279a1.993 1.993 0 0 0-.79.813c-.193.356-.29.787-.29 1.295Zm11.677 5.432c-.84 0-1.566-.186-2.176-.557a3.737 3.737 0 0 1-1.403-1.568c-.326-.674-.49-1.459-.49-2.353 0-.893.164-1.681.49-2.363.33-.686.787-1.22 1.375-1.602.59-.387 1.28-.58 2.068-.58.454 0 .903.076 1.346.227a3.33 3.33 0 0 1 1.21.739c.364.337.654.784.87 1.34.216.558.324 1.243.324 2.058v.568h-6.727v-1.16h5.363c0-.492-.098-.931-.295-1.317a2.226 2.226 0 0 0-.83-.915c-.356-.224-.776-.335-1.261-.335-.534 0-.996.132-1.387.397a2.616 2.616 0 0 0-.892 1.023c-.208.42-.312.871-.312 1.352v.773c0 .66.114 1.218.34 1.676.232.455.552.801.961 1.04.41.235.884.352 1.426.352.352 0 .67-.049.955-.148.287-.102.536-.253.744-.454.208-.204.37-.458.483-.761l1.295.363a2.87 2.87 0 0 1-.687 1.16c-.322.329-.72.587-1.193.772a4.426 4.426 0 0 1-1.597.273ZM79.383 85v-8.727h1.296v1.318h.09c.16-.432.448-.782.864-1.051a2.542 2.542 0 0 1 1.41-.404c.098 0 .221.002.369.006s.26.01.335.017v1.364a4.016 4.016 0 0 0-.312-.051 3.077 3.077 0 0 0-.506-.04c-.424 0-.803.089-1.136.267-.33.174-.591.416-.785.727a1.96 1.96 0 0 0-.284 1.051V85h-1.34Zm12.136-6.773-1.205.341a2.234 2.234 0 0 0-.335-.585 1.626 1.626 0 0 0-.591-.477c-.25-.125-.57-.188-.96-.188-.534 0-.98.123-1.336.37-.352.242-.528.55-.528.926 0 .333.121.596.364.79.242.193.62.354 1.136.482l1.295.319c.78.189 1.362.479 1.745.869.382.386.574.884.574 1.494 0 .5-.144.947-.432 1.341-.284.394-.682.705-1.193.932-.512.227-1.106.34-1.784.34-.89 0-1.627-.192-2.21-.579-.584-.386-.953-.95-1.109-1.693l1.273-.318c.121.47.35.822.688 1.057.34.235.785.352 1.335.352.625 0 1.121-.133 1.488-.398.372-.269.557-.59.557-.966 0-.303-.106-.556-.318-.761-.212-.208-.538-.364-.977-.466l-1.455-.34c-.799-.19-1.386-.484-1.761-.882-.371-.401-.557-.903-.557-1.505 0-.493.138-.928.415-1.307.28-.379.66-.676 1.142-.892.485-.216 1.034-.324 1.648-.324.863 0 1.541.19 2.034.568.496.38.848.88 1.056 1.5Zm9.245 6.977a3.545 3.545 0 0 1-1.505-.312 2.584 2.584 0 0 1-1.074-.915c-.266-.401-.398-.886-.398-1.454 0-.5.098-.906.295-1.216.197-.315.46-.56.79-.739a4.15 4.15 0 0 1 1.091-.397c.402-.092.805-.163 1.21-.217.531-.068.961-.119 1.29-.153.333-.038.576-.1.727-.187.156-.088.233-.239.233-.455v-.045c0-.561-.153-.997-.46-1.307-.303-.31-.763-.466-1.381-.466-.64 0-1.142.14-1.505.42-.364.28-.62.58-.767.898l-1.273-.455c.227-.53.53-.943.909-1.238.383-.3.8-.508 1.25-.625a5.196 5.196 0 0 1 1.341-.182c.28 0 .602.034.966.102.367.065.721.2 1.062.404.345.204.631.513.858.926.228.413.341.966.341 1.659V85h-1.341v-1.182h-.068c-.091.19-.242.392-.454.608-.213.216-.495.4-.847.551-.352.152-.782.227-1.29.227Zm.205-1.204c.53 0 .977-.104 1.341-.313a2.124 2.124 0 0 0 1.113-1.846v-1.227c-.057.068-.182.13-.375.187a6.29 6.29 0 0 1-.659.142 30.27 30.27 0 0 1-1.284.17 5.19 5.19 0 0 0-.977.222 1.67 1.67 0 0 0-.727.45c-.182.196-.273.465-.273.806 0 .466.172.818.517 1.057.348.235.79.352 1.324.352Zm7.584-4.25V85h-1.341v-8.727h1.295v1.363h.114c.204-.443.515-.799.932-1.068.416-.272.954-.409 1.613-.409.591 0 1.108.121 1.551.364.444.238.788.602 1.034 1.09.247.486.37 1.1.37 1.841V85h-1.341v-5.454c0-.686-.178-1.22-.534-1.603-.356-.386-.845-.58-1.466-.58a2.34 2.34 0 0 0-1.148.279 2 2 0 0 0-.79.813c-.193.356-.289.787-.289 1.295Zm11.313 5.432c-.727 0-1.369-.184-1.926-.551-.556-.371-.992-.894-1.306-1.569-.315-.677-.472-1.479-.472-2.403 0-.917.157-1.712.472-2.386.314-.674.751-1.195 1.312-1.563.561-.367 1.208-.55 1.943-.55.568 0 1.017.094 1.347.283.333.186.587.398.761.636.178.235.316.429.415.58h.114v-4.295h1.34V85h-1.295v-1.34h-.159a8.77 8.77 0 0 1-.421.601c-.181.239-.441.453-.778.642-.337.186-.786.279-1.347.279Zm.182-1.205c.538 0 .993-.14 1.364-.42.371-.284.653-.676.847-1.176.193-.504.289-1.085.289-1.745 0-.651-.094-1.221-.284-1.71-.189-.492-.469-.875-.841-1.148-.371-.276-.829-.414-1.375-.414-.568 0-1.041.145-1.42.437-.375.288-.657.68-.847 1.176a4.689 4.689 0 0 0-.278 1.66c0 .62.095 1.185.284 1.692.193.504.477.906.852 1.205.379.295.849.443 1.409.443Zm11.142-10.613h1.682l3.955 9.659h.136l3.955-9.66h1.681V85h-1.318v-8.84h-.113L137.531 85h-1.272l-3.637-8.84h-.113V85h-1.319V73.364Zm17.712 11.818c-.841 0-1.566-.186-2.176-.557a3.742 3.742 0 0 1-1.404-1.568c-.325-.674-.488-1.459-.488-2.353 0-.893.163-1.681.488-2.363.33-.686.788-1.22 1.375-1.602.591-.387 1.281-.58 2.069-.58.454 0 .903.076 1.346.227.443.152.847.398 1.21.739.364.337.654.784.87 1.34.216.558.324 1.243.324 2.058v.568h-6.728v-1.16h5.364c0-.492-.098-.931-.295-1.317a2.232 2.232 0 0 0-.83-.915c-.356-.224-.777-.335-1.261-.335-.534 0-.997.132-1.387.397a2.623 2.623 0 0 0-.892 1.023c-.208.42-.312.871-.312 1.352v.773c0 .66.113 1.218.341 1.676.231.455.551.801.96 1.04.409.235.884.352 1.426.352.352 0 .67-.049.955-.148.287-.102.536-.253.744-.454.208-.204.369-.458.483-.761l1.295.363a2.87 2.87 0 0 1-.687 1.16c-.322.329-.72.587-1.193.772a4.43 4.43 0 0 1-1.597.273Zm6.994-5.432V85h-1.341v-8.727h1.296v1.363h.113a2.5 2.5 0 0 1 .932-1.068c.417-.272.955-.409 1.614-.409.591 0 1.108.121 1.551.364a2.45 2.45 0 0 1 1.034 1.09c.246.486.369 1.1.369 1.841V85h-1.34v-5.454c0-.686-.178-1.22-.535-1.603-.356-.386-.844-.58-1.465-.58a2.34 2.34 0 0 0-1.148.279 1.994 1.994 0 0 0-.79.813c-.193.356-.29.787-.29 1.295Zm11.814-3.477v1.136h-4.522v-1.136h4.522Zm-3.204-2.091h1.341V82.5c0 .379.055.663.164.852.114.186.258.31.432.375.178.06.366.091.563.091a2.4 2.4 0 0 0 .363-.022l.228-.046.272 1.204a2.713 2.713 0 0 1-.38.103c-.163.038-.37.057-.62.057-.378 0-.75-.082-1.113-.245a2.215 2.215 0 0 1-.898-.744c-.235-.333-.352-.754-.352-1.261v-8.682Zm8.673 11c-.788 0-1.479-.188-2.074-.563-.591-.375-1.053-.9-1.386-1.573-.33-.675-.495-1.463-.495-2.364 0-.91.165-1.703.495-2.38.333-.679.795-1.205 1.386-1.58.595-.375 1.286-.563 2.074-.563.788 0 1.477.188 2.068.563.595.375 1.057.901 1.387 1.58.333.677.5 1.47.5 2.38 0 .901-.167 1.69-.5 2.364a3.77 3.77 0 0 1-1.387 1.573c-.591.375-1.28.563-2.068.563Zm0-1.205c.598 0 1.091-.153 1.477-.46.387-.307.673-.71.858-1.21.186-.5.279-1.042.279-1.625 0-.584-.093-1.127-.279-1.63a2.74 2.74 0 0 0-.858-1.223c-.386-.31-.879-.465-1.477-.465-.599 0-1.091.155-1.477.465a2.74 2.74 0 0 0-.858 1.222 4.672 4.672 0 0 0-.279 1.63c0 .584.093 1.126.279 1.626.185.5.471.903.858 1.21.386.307.878.46 1.477.46ZM179.18 85v-8.727h1.296v1.318h.091c.159-.432.447-.782.863-1.051a2.544 2.544 0 0 1 1.409-.404c.099 0 .222.002.37.006s.259.01.335.017v1.364a4.014 4.014 0 0 0-.312-.051 3.09 3.09 0 0 0-.506-.04 2.38 2.38 0 0 0-1.137.267c-.329.174-.59.416-.784.727a1.964 1.964 0 0 0-.284 1.051V85h-1.341Zm12.135-6.773-1.204.341a2.262 2.262 0 0 0-.335-.585 1.628 1.628 0 0 0-.591-.477c-.25-.125-.57-.188-.961-.188-.534 0-.979.123-1.335.37-.352.242-.528.55-.528.926 0 .333.121.596.363.79.243.193.622.354 1.137.482l1.295.319c.781.189 1.362.479 1.745.869.382.386.573.884.573 1.494 0 .5-.144.947-.431 1.341-.284.394-.682.705-1.194.932-.511.227-1.106.34-1.784.34-.89 0-1.627-.192-2.21-.579-.583-.386-.953-.95-1.108-1.693l1.273-.318c.121.47.35.822.687 1.057.341.235.786.352 1.336.352.625 0 1.121-.133 1.488-.398.371-.269.557-.59.557-.966 0-.303-.106-.556-.318-.761-.212-.208-.538-.364-.977-.466l-1.455-.34c-.799-.19-1.386-.484-1.761-.882-.372-.401-.557-.903-.557-1.505 0-.493.138-.928.415-1.307a2.82 2.82 0 0 1 1.142-.892c.485-.216 1.034-.324 1.647-.324.864 0 1.542.19 2.035.568a3.06 3.06 0 0 1 1.056 1.5Z"/></svg>