<svg xmlns="http://www.w3.org/2000/svg" width="193" height="41" fill="none"><path fill="#00142A" d="M56.782 15c-.868 0-1.655-.167-2.361-.5a5.687 5.687 0 0 1-1.824-1.35 6.456 6.456 0 0 1-1.18-1.933A6.127 6.127 0 0 1 51 9c0-.789.145-1.539.434-2.25a6.083 6.083 0 0 1 1.216-1.917A5.87 5.87 0 0 1 54.507 3.5 5.3 5.3 0 0 1 56.8 3c.868 0 1.656.172 2.362.517A5.587 5.587 0 0 1 60.966 4.9c.51.578.903 1.222 1.181 1.933a6.038 6.038 0 0 1-.017 4.45 6.342 6.342 0 0 1-1.216 1.917 5.794 5.794 0 0 1-1.84 1.317 5.455 5.455 0 0 1-2.292.483Zm-4.567-6c0 .644.11 1.267.33 1.867.22.589.533 1.116.938 1.583.405.456.885.822 1.441 1.1a4.31 4.31 0 0 0 1.858.4c.706 0 1.337-.139 1.893-.417a4.58 4.58 0 0 0 1.44-1.133 5.068 5.068 0 0 0 .92-1.6 5.361 5.361 0 0 0-.016-3.65 4.961 4.961 0 0 0-.956-1.583 4.424 4.424 0 0 0-1.44-1.1 4.198 4.198 0 0 0-1.841-.4c-.695 0-1.325.139-1.893.416a4.524 4.524 0 0 0-1.44 1.134c-.394.466-.701.994-.921 1.583a5.36 5.36 0 0 0-.313 1.8ZM64.72 6.233l2.657 3.4.139.25.139-.25 2.64-3.4h1.336L68.193 10.6l3.438 4.317h-1.337l-2.64-3.384-.138-.233-.139.233-2.64 3.384h-1.336l3.42-4.317-3.42-4.367h1.32ZM78.453 15c-.972 0-1.794-.167-2.466-.5-.67-.333-1.203-.778-1.597-1.333a5.964 5.964 0 0 1-.868-1.917 9.238 9.238 0 0 1-.26-2.2V3.083h1.198V9.05c0 .611.063 1.211.19 1.8.14.589.36 1.117.66 1.583.301.467.706.84 1.216 1.117.51.267 1.146.4 1.91.4.787 0 1.435-.139 1.944-.417a3.25 3.25 0 0 0 1.216-1.133 4.75 4.75 0 0 0 .642-1.567c.128-.589.191-1.183.191-1.783V3.083h1.216V9.05c0 .789-.093 1.544-.278 2.267a5.222 5.222 0 0 1-.903 1.9 4.307 4.307 0 0 1-1.597 1.3c-.66.322-1.465.483-2.414.483ZM89.853 3.083h1.025L96 14.917h-1.285l-1.597-3.7h-5.54l-1.58 3.7h-1.301l5.156-11.834ZM92.84 10.3l-2.483-5.85-2.518 5.85h5ZM51 37.567V20.123h3.44v17.444H51ZM61.57 26.363v11.204h-3.439V20.123h2.741L70.02 31.62V20.147h3.44v17.42h-2.867L61.57 26.363ZM76.067 28.722c0-1.065.191-2.105.574-3.12a9.07 9.07 0 0 1 1.72-2.801 8.01 8.01 0 0 1 2.74-2.015c1.08-.508 2.31-.761 3.689-.761 1.628 0 3.032.352 4.212 1.056 1.196.704 2.085 1.622 2.666 2.752l-2.641 1.793c-.3-.655-.69-1.17-1.172-1.548a4.13 4.13 0 0 0-1.545-.81 5.639 5.639 0 0 0-1.62-.246c-.864 0-1.62.172-2.268.516a5.055 5.055 0 0 0-1.595 1.351 5.907 5.907 0 0 0-.972 1.867 7.385 7.385 0 0 0-.299 2.064c0 .77.125 1.515.374 2.236.25.704.598 1.335 1.047 1.892.465.54 1.013.974 1.645 1.302a4.829 4.829 0 0 0 2.118.467c.548 0 1.105-.09 1.67-.27a4.755 4.755 0 0 0 1.57-.86c.482-.393.856-.901 1.121-1.524l2.817 1.597c-.35.869-.922 1.606-1.72 2.212a8.43 8.43 0 0 1-2.642 1.376 9.595 9.595 0 0 1-2.915.466c-1.263 0-2.418-.254-3.465-.761a9.066 9.066 0 0 1-2.716-2.064 10.41 10.41 0 0 1-1.77-2.9 9.05 9.05 0 0 1-.623-3.267ZM101.726 37.69c-1.413 0-2.617-.23-3.614-.688-.98-.475-1.778-1.122-2.392-1.941a8.436 8.436 0 0 1-1.321-2.776 12.508 12.508 0 0 1-.424-3.268v-8.894h3.44v8.894c0 .72.066 1.425.198 2.113.15.671.391 1.277.723 1.818.333.54.773.966 1.321 1.277.548.312 1.23.467 2.044.467.83 0 1.52-.155 2.068-.467a3.574 3.574 0 0 0 1.321-1.302c.332-.54.573-1.146.723-1.818a9.838 9.838 0 0 0 .224-2.088v-8.894h3.415v8.894c0 1.195-.15 2.317-.449 3.366a7.655 7.655 0 0 1-1.371 2.776c-.615.786-1.412 1.409-2.392 1.867-.981.443-2.152.664-3.514.664ZM127.171 33.07c0 .983-.257 1.81-.772 2.482-.516.655-1.213 1.155-2.094 1.499-.864.344-1.811.516-2.841.516h-8.548V20.123h9.47c.831 0 1.545.221 2.143.663a4.05 4.05 0 0 1 1.396 1.67 4.709 4.709 0 0 1-.15 4.497c-.432.753-1.063 1.31-1.894 1.67 1.014.296 1.811.828 2.393 1.598.598.77.897 1.72.897 2.85Zm-3.464-.638c0-.442-.091-.835-.274-1.18a2.05 2.05 0 0 0-.748-.835 1.758 1.758 0 0 0-1.047-.32h-5.283v4.595h5.109a2.16 2.16 0 0 0 1.121-.294c.349-.214.623-.492.823-.836.199-.344.299-.72.299-1.13Zm-7.352-9.41v4.398h4.586c.382 0 .731-.09 1.046-.27.316-.18.565-.434.748-.762.199-.328.299-.72.299-1.18 0-.442-.091-.826-.274-1.154a1.836 1.836 0 0 0-.698-.762 1.766 1.766 0 0 0-.972-.27h-4.735ZM134.275 20.123h3.489l6.505 17.444h-3.539l-1.645-4.349h-6.18l-1.62 4.349h-3.539l6.529-17.444Zm4.187 10.712-2.442-7.199-2.542 7.199h4.984ZM157.789 23.096h-5.658v14.47h-3.414v-14.47h-5.657v-2.973h14.729v2.973ZM167.123 37.69c-1.296 0-2.476-.246-3.539-.737a8.595 8.595 0 0 1-2.717-1.99 9.72 9.72 0 0 1-1.744-2.85 8.926 8.926 0 0 1-.623-3.268 8.62 8.62 0 0 1 .648-3.317 9.516 9.516 0 0 1 1.819-2.825 8.555 8.555 0 0 1 2.742-1.966c1.063-.491 2.226-.737 3.489-.737 1.279 0 2.442.254 3.489.762a8.359 8.359 0 0 1 2.716 2.039 9.721 9.721 0 0 1 1.745 2.85 8.736 8.736 0 0 1 .623 3.243 8.74 8.74 0 0 1-.648 3.317 9.305 9.305 0 0 1-1.819 2.825 8.391 8.391 0 0 1-2.742 1.941c-1.047.475-2.193.713-3.439.713Zm-5.134-8.845c0 .753.116 1.482.349 2.187a6.25 6.25 0 0 0 .997 1.891c.448.54.988.975 1.62 1.302.648.312 1.379.467 2.193.467.831 0 1.57-.163 2.218-.491a4.97 4.97 0 0 0 1.62-1.351 6.213 6.213 0 0 0 .972-1.892 6.72 6.72 0 0 0 .349-2.113c0-.754-.125-1.474-.374-2.162a5.684 5.684 0 0 0-1.022-1.867 4.467 4.467 0 0 0-1.62-1.303c-.631-.327-1.346-.491-2.143-.491-.848 0-1.595.172-2.243.516a4.774 4.774 0 0 0-1.595 1.327 6.34 6.34 0 0 0-.997 1.867 7.014 7.014 0 0 0-.324 2.113ZM178.409 37.567V20.123h7.826a5.11 5.11 0 0 1 2.243.491 5.55 5.55 0 0 1 1.794 1.327c.515.557.905 1.18 1.171 1.867.283.688.424 1.392.424 2.113 0 .737-.133 1.45-.399 2.138a5.144 5.144 0 0 1-1.096 1.769c-.482.507-1.047.9-1.695 1.179l4.037 6.56h-3.788l-3.638-5.848h-3.44v5.848h-3.439Zm3.439-8.82h4.312c.432 0 .814-.123 1.146-.369.333-.262.598-.606.798-1.032.199-.426.299-.9.299-1.425 0-.557-.117-1.04-.349-1.45a2.816 2.816 0 0 0-.897-1.007 1.95 1.95 0 0 0-1.147-.368h-4.162v5.65Z"/><path fill="#0386FF" d="M2.604 34.664A105.12 105.12 0 0 0 5.37 33.06c1.87-1.116 4.624-3.544 3.057-5.056-1.909-1.84-4.055 1.697-4.944 4.195l-.878 2.465ZM8.507 39.683c.802-.444 1.818-1.04 2.764-1.604 1.87-1.116 4.624-3.544 3.057-5.055-1.908-1.84-4.055 1.697-4.944 4.195l-.877 2.464ZM7.089 20.146c1.59 1.465 4.644 2.846 8.019 2.675 1.233-.063 2.263-.209 3.536-.772a10.607 10.607 0 0 0-.08 3.902c.561 3.332 5.194 8.96 6.968 10.197l-.811-5.687c-1.263-.88-2.78-2.65-3.177-5.012-.313-1.856-.021-3.98 1.775-7.082.636-1.097.922-1.747 1.402-2.623l.81-1.761-1.795 1.044c-.045.049-1.45 1.065-2.332 1.657-2.782 2.152-4.81 3.164-6.687 3.26-2.393.121-4.448-.977-5.58-2.02l-2.048 2.222Z"/><path fill="#FF8701" fill-rule="evenodd" d="m10.471 31.229 4.4-14.947.013-.036c2.242-6.27 6.028-9.584 9.67-11.03 1.801-.716 3.552-.967 5.033-.9 1.42.063 2.789.432 3.649 1.174.415.358.7.859.898 1.34.207.507.362 1.104.453 1.762.183 1.319.123 2.96-.359 4.758-.97 3.625-3.638 7.84-9.382 11.388l-.075.046-14.3 6.445Zm13.037-8.822c5.169-3.214 7.353-6.867 8.126-9.752.392-1.464.424-2.743.293-3.693a4.707 4.707 0 0 0-.28-1.114c-.1-.245-.175-.33-.174-.331-.21-.175-.867-.467-2.007-.519-1.095-.049-2.467.137-3.922.714-2.865 1.138-6.115 3.828-8.118 9.403l-2.727 9.262 8.809-3.97Z" clip-rule="evenodd"/><path fill="#0386FF" fill-rule="evenodd" d="M14.87 22.961c-3.375.172-9.913-3.129-11.503-4.594l5.77-.444c1.132 1.044 3.187 2.142 5.58 2.02 1.876-.095 3.904-1.107 6.687-3.26.882-.591 2.287-1.607 2.332-1.656l2.406-1.613-1.42 2.33c-.19.346-.35.657-.513.973-.249.486-.505.986-.89 1.65-.845 1.459-1.357 2.702-1.63 3.802l-3.262 1.688c.02-.589.091-1.192.217-1.808-1.273.563-2.54.85-3.774.912Z" clip-rule="evenodd"/></svg>