<svg xmlns="http://www.w3.org/2000/svg" width="54" height="54" fill="none"><circle cx="27" cy="27" r="27" fill="url(#a)"/><path fill="#fff" d="M28.532 16.273a1.532 1.532 0 0 0-3.065 0v1.532a1.532 1.532 0 1 0 3.065 0v-1.532Zm7.136 4.225a1.533 1.533 0 0 0-2.167-2.167l-1.083 1.084a1.532 1.532 0 1 0 2.167 2.167l1.083-1.084ZM39.26 27c0 .846-.687 1.532-1.533 1.532h-1.533a1.532 1.532 0 1 1 0-3.064h1.533c.846 0 1.532.686 1.532 1.532Zm-19.846-5.418a1.532 1.532 0 1 0 2.168-2.167l-1.084-1.084a1.533 1.533 0 0 0-2.167 2.167l1.083 1.084ZM19.337 27c0 .846-.686 1.532-1.532 1.532h-1.532a1.532 1.532 0 1 1 0-3.064h1.532c.846 0 1.532.686 1.532 1.532Zm4.598 9.194v-1.532h6.13v1.532a3.065 3.065 0 1 1-6.13 0Zm6.131-3.064c.022-.522.317-.99.73-1.317a6.13 6.13 0 1 0-7.591 0c.412.326.706.795.729 1.317h6.132Z"/><defs><linearGradient id="a" x1="27" x2="27" y1="0" y2="54" gradientUnits="userSpaceOnUse"><stop stop-color="#138BF0"/><stop offset="1" stop-color="#F5C50C"/></linearGradient></defs></svg>