<svg xmlns="http://www.w3.org/2000/svg" width="86" height="86" fill="none"><circle cx="43" cy="43.497" r="42.5" fill="url(#a)"/><path fill="#fff" fill-rule="evenodd" d="M27.747 41.392h4.883c.223-3.88.962-7.456 2.102-10.334a15.068 15.068 0 0 0-6.985 10.334Zm14.849-17.567c-11.088 0-20.076 8.989-20.076 20.076 0 11.088 8.988 20.077 20.076 20.077 11.088 0 20.076-8.989 20.076-20.077 0-11.087-8.988-20.076-20.076-20.076Zm0 5.02c-.191 0-.583.079-1.168.656-.596.588-1.248 1.564-1.85 2.967-.975 2.276-1.688 5.374-1.92 8.924h9.875c-.232-3.55-.945-6.648-1.92-8.924-.602-1.403-1.254-2.379-1.85-2.967-.585-.577-.976-.657-1.167-.657Zm9.966 12.547c-.224-3.88-.963-7.456-2.102-10.334a15.068 15.068 0 0 1 6.985 10.334h-4.883Zm-5.029 5.019h-9.875c.232 3.55.945 6.647 1.92 8.923.602 1.404 1.254 2.38 1.85 2.967.585.578.977.657 1.168.657.19 0 .582-.08 1.167-.657.596-.588 1.248-1.563 1.85-2.967.975-2.276 1.688-5.374 1.92-8.923Zm2.926 10.333c1.14-2.877 1.88-6.452 2.103-10.333h4.883a15.067 15.067 0 0 1-6.986 10.333Zm-15.727 0c-1.14-2.877-1.879-6.452-2.102-10.333h-4.883a15.067 15.067 0 0 0 6.985 10.333Z" clip-rule="evenodd"/><defs><linearGradient id="a" x1="43" x2="43" y1=".997" y2="85.997" gradientUnits="userSpaceOnUse"><stop stop-color="#0386FF"/><stop offset="1" stop-color="#FFC701"/></linearGradient></defs></svg>