<svg xmlns="http://www.w3.org/2000/svg" width="86" height="86" fill="none"><circle cx="43" cy="43.497" r="42.5" fill="url(#a)"/><path fill="#fff" fill-rule="evenodd" d="M22.936 32.16a30 30 0 0 0 19.66-7.665 30 30 0 0 0 19.659 7.666c.274 1.633.417 3.31.417 5.021 0 13.112-8.38 24.267-20.076 28.401-11.697-4.134-20.076-15.289-20.076-28.4 0-1.712.142-3.39.416-5.022Zm27.895 8.24a1 1 0 0 0-1.414-1.414l-9.33 9.33-4.313-4.311a1 1 0 0 0-1.414 1.414l5.02 5.02a1 1 0 0 0 1.413 0L50.831 40.4Z" clip-rule="evenodd"/><defs><linearGradient id="a" x1="43" x2="43" y1=".997" y2="85.997" gradientUnits="userSpaceOnUse"><stop stop-color="#0386FF"/><stop offset="1" stop-color="#FFC701"/></linearGradient></defs></svg>